<?xml version="1.0" encoding="UTF-8"?> <svg xmlns="http://www.w3.org/2000/svg" xmlns:xlink="http://www.w3.org/1999/xlink" id="Anniversary_Logo_White_Header" width="177.741" height="201.626" viewBox="0 0 177.741 201.626"><defs><clipPath id="clip-path"><rect id="Rechteck_1249" data-name="Rechteck 1249" width="177.741" height="201.626" fill="none"></rect></clipPath></defs><g id="Gruppe_7126" data-name="Gruppe 7126" clip-path="url(#clip-path)"><path id="Pfad_2546" data-name="Pfad 2546" d="M53.929,34.06S66.442,13.042,84.682,11.826c-6.6,21.191-44.3,70.7-82.689,107.694-3.126,2.953-4.84,10.2,12.854,8.082,37.859-4.534,95.284-20.527,92.678-29.733s1.718,11.043-96.346,21.667C24.554,108.42,95.27,31.8,95.27,11.479c0-23.624-42.209-8.165-52.111,22.581-1.042,4.864,5.038,8.338,10.77,0" transform="translate(0 0)" fill="#fff"></path><path id="Pfad_2547" data-name="Pfad 2547" d="M135.722,3.131c-10.812.782-27.879.261-36.738-1.564-5.993-1.3-9.655,5.008-10.421,9.38s-7.3,32.829-8.077,35.435,2.634,3.756,5.732,2.865c11.335-3.256,26.837-1.562,28.14,12.247s-1.042,32.047-11.2,52.37-26.315,40.646-35.174,28.4,4.69-40.906,5.992-42.209-2.085-5.471-4.95-2.606-10.423,25.014-8.6,37.78,14.07,24.231,31.787,5.471,29.7-45.6,33.091-73.735S99.5,35.7,87.78,41.692c4.168-12.506,9.511-27.749,9.511-27.749s23.058-.13,35.564-5.08c4.951-1.824,4.962-5.884,2.867-5.732" transform="translate(11.098 0.257)" fill="#fff"></path><path id="Pfad_2548" data-name="Pfad 2548" d="M120.437,91.209l.6-1.8c.267-.8.6-1.735.933-2.469l1-2.536.534-1.067.333-.467c0-.068.268-.334.4-.4l.6-.334h1.068l.867.6.4.667.066,1a.606.606,0,0,0-.066.334l-.134.4a13.288,13.288,0,0,1-1,2.669l-1.068,2.469-.134.268L149,86.4h.267a1.68,1.68,0,0,1,.334,3.336L123.773,92.61c-2.6,4.737-3.8,10.475-5.271,15.279l-1,3.736a30.511,30.511,0,0,0-1.334,8.208,3.277,3.277,0,0,0,.133,1l.068.066a29.33,29.33,0,0,0,3.936-3.937c.534-.667.867-1.468,1.468-2.2l2-3.337,3-5.8,1.668-3.537.534-1.2a.883.883,0,0,1,.667-.4.7.7,0,0,1,.734.734c0,.066-.066.2-.066.267l-.6,1.2-1.8,3.537-2.47,4.6-1.267,2.336-2.8,4.47c-1.267,1.734-2.4,3.6-4.337,4.537l-.467.134c-.066,0-.134.066-.268.066a1.761,1.761,0,0,1-.667-.2l-.266-.2c-.8-.734-.534-1.334-.734-2v-.733a9.735,9.735,0,0,1,.068-1.4l.133-1.267a9.858,9.858,0,0,0,.134-1.4l.667-3.936.2-1.267,1.735-7.94a.927.927,0,0,1-.668-.8.245.245,0,0,1,.068-.2l.467-1.267.467-1.2,1.468-3.536.134-.468.4-1.4-2.068.2H117.7a.771.771,0,0,1-.8-.8.794.794,0,0,1,.668-.8Z" transform="translate(21.152 15.156)" fill="#fff"></path><path id="Pfad_2549" data-name="Pfad 2549" d="M127.837,99.585l2.936-5.271,2.6-4.537.4-1.135c.667-1.934,1.269-3.87,2.136-5.8l.467-1a2.926,2.926,0,0,0,.268-.468l.4-.6c.268-.267.6-.933,1.4-.933h.134a.2.2,0,0,1,.133-.068h.2c.066,0,.133.134.4.068l.066.066.467.2.334.334a2.818,2.818,0,0,1,.534.933l.066.468c0,.4-.134.667-.134.933l-.2.6a20.622,20.622,0,0,1-1.868,3.87l-1.868,3.137c-.8,2.268-1.6,4.6-2.336,6.939l-4.4,13.545c1.8-3.337,3.67-7.207,6.138-10.276l.8-1,.667-.6.334-.2.267-.066a.671.671,0,0,1,.2-.068h.134a1.317,1.317,0,0,1,1.468,1.068l.2.733a3.551,3.551,0,0,1,.066.8,23.834,23.834,0,0,1-.467,3.737l-.534,2.4a24,24,0,0,1-.667,2.336l-.066.4,6.6-8.874a.823.823,0,0,1,.668-.334.728.728,0,0,1,.667.734.56.56,0,0,1-.134.467L137.044,114.6a.924.924,0,0,1-.667.333.746.746,0,0,1-.667-.8V114l.867-4.737c.267-1.535.6-3.07.8-4.672l.267-1.934-3.469,5.337L129.3,116.2l-2.535,4.136a.643.643,0,0,1-.6.4.714.714,0,0,1-.667-.667V119.8c1.6-6.939,3.069-14.011,5.2-20.883a14.443,14.443,0,0,0-1.334,1.668l-.667.8c-.335.467-.668,1.067-1.2,1.067a.741.741,0,0,1-.733-.733c0-.134.066-.2.134-.334Z" transform="translate(23.158 14.719)" fill="#fff"></path><rect id="Rechteck_1247" data-name="Rechteck 1247" width="74.056" height="1.185" transform="translate(103.685 147.095)" fill="#fff"></rect><rect id="Rechteck_1248" data-name="Rechteck 1248" width="68.972" height="1.185" transform="translate(0.335 147.095)" fill="#fff"></rect><path id="Pfad_2550" data-name="Pfad 2550" d="M3.128,150.62a.478.478,0,0,1-.2-.047.4.4,0,0,1-.165-.129.336.336,0,0,1-.059-.2.316.316,0,0,1,.025-.141l5.1-16.464a.393.393,0,0,1,.165-.258.487.487,0,0,1,.258-.071.494.494,0,0,1,.269.083.415.415,0,0,1,.176.246l5.05,16.464a.271.271,0,0,1,.024.118.317.317,0,0,1-.07.187.534.534,0,0,1-.176.153.454.454,0,0,1-.223.059.381.381,0,0,1-.375-.306l-1.2-3.852h-7l-1.174,3.852a.374.374,0,0,1-.165.235.487.487,0,0,1-.258.071m1.855-5h6.483L8.249,135.094Z" transform="translate(0.499 24.599)" fill="#fff"></path><path id="Pfad_2551" data-name="Pfad 2551" d="M18.574,150.6a.442.442,0,0,1-.293-.105.384.384,0,0,1-.129-.316V133.828a.349.349,0,0,1,.129-.317.531.531,0,0,1,.293-.082.4.4,0,0,1,.306.165,2.625,2.625,0,0,1,.258.364,2.219,2.219,0,0,1,.163.317l7.189,14.232V133.828a.349.349,0,0,1,.129-.306.479.479,0,0,1,.293-.094.485.485,0,0,1,.294.094.355.355,0,0,1,.129.306v16.348a.387.387,0,0,1-.129.316.448.448,0,0,1-.294.105c-.156,0-.29-.1-.4-.306s-.2-.383-.282-.54L19,135.5v14.68a.387.387,0,0,1-.128.316.448.448,0,0,1-.294.105" transform="translate(3.349 24.621)" fill="#fff"></path><path id="Pfad_2552" data-name="Pfad 2552" d="M33.582,150.6a.444.444,0,0,1-.293-.105.384.384,0,0,1-.129-.316V133.828a.349.349,0,0,1,.129-.317.533.533,0,0,1,.293-.082.4.4,0,0,1,.306.165,2.535,2.535,0,0,1,.259.364,2.352,2.352,0,0,1,.163.317L41.5,148.507V133.828a.352.352,0,0,1,.129-.306.506.506,0,0,1,.586,0,.355.355,0,0,1,.129.306v16.348a.387.387,0,0,1-.129.316.445.445,0,0,1-.294.105q-.235,0-.4-.306c-.111-.2-.2-.383-.282-.54L34,135.5v14.68a.387.387,0,0,1-.129.316.445.445,0,0,1-.294.105" transform="translate(6.119 24.621)" fill="#fff"></path><path id="Pfad_2553" data-name="Pfad 2553" d="M48.592,150.6a.444.444,0,0,1-.293-.105.384.384,0,0,1-.129-.316V133.828a.352.352,0,0,1,.129-.306.506.506,0,0,1,.586,0,.355.355,0,0,1,.129.306v16.348a.387.387,0,0,1-.129.316.445.445,0,0,1-.294.105" transform="translate(8.888 24.621)" fill="#fff"></path><path id="Pfad_2554" data-name="Pfad 2554" d="M60.513,150.738a.443.443,0,0,1-.258-.082.433.433,0,0,1-.163-.246l-5.1-16.465a.312.312,0,0,1-.024-.141.338.338,0,0,1,.058-.2.4.4,0,0,1,.165-.129.487.487,0,0,1,.458.024.376.376,0,0,1,.163.236l4.7,15.219,4.674-15.219a.394.394,0,0,1,.153-.236.387.387,0,0,1,.223-.07.439.439,0,0,1,.223.059.641.641,0,0,1,.178.14.3.3,0,0,1,.069.2.1.1,0,0,1-.012.047.2.2,0,0,0-.011.07L60.96,150.41a.424.424,0,0,1-.176.246.5.5,0,0,1-.27.082" transform="translate(10.143 24.621)" fill="#fff"></path><path id="Pfad_2555" data-name="Pfad 2555" d="M70.82,150.6a.442.442,0,0,1-.293-.105.384.384,0,0,1-.129-.316V133.851a.384.384,0,0,1,.129-.316.442.442,0,0,1,.293-.105h8.363a.351.351,0,0,1,.3.129.458.458,0,0,1,.094.27.5.5,0,0,1-.105.306.347.347,0,0,1-.293.141H71.241v7.3H75a.358.358,0,0,1,.293.129.482.482,0,0,1,.105.317.453.453,0,0,1-.094.27.354.354,0,0,1-.3.129h-3.76v7.327h7.941a.355.355,0,0,1,.293.13.485.485,0,0,1,.105.316.461.461,0,0,1-.094.27.351.351,0,0,1-.3.129Z" transform="translate(12.99 24.621)" fill="#fff"></path><path id="Pfad_2556" data-name="Pfad 2556" d="M93,150.6c-.156,0-.29-.1-.4-.306s-.2-.383-.283-.54l-3.757-7.327H85.082v7.752a.387.387,0,0,1-.129.316.45.45,0,0,1-.294.105.444.444,0,0,1-.293-.105.381.381,0,0,1-.13-.316V133.828a.347.347,0,0,1,.117-.27.554.554,0,0,1,.306-.129h3.923a6.822,6.822,0,0,1,2.4.411,3.655,3.655,0,0,1,1.774,1.386,4.7,4.7,0,0,1,.668,2.689,4.956,4.956,0,0,1-.528,2.444,3.473,3.473,0,0,1-1.42,1.408,5.849,5.849,0,0,1-2,.611l3.875,7.538a.36.36,0,0,1,.059.141.846.846,0,0,1,.012.118.4.4,0,0,1-.058.211.467.467,0,0,1-.153.152A.384.384,0,0,1,93,150.6m-7.915-9.019h3.5a4.576,4.576,0,0,0,2.876-.858,4.072,4.072,0,0,0,0-5.6,4.623,4.623,0,0,0-2.876-.846h-3.5Z" transform="translate(15.543 24.621)" fill="#fff"></path><path id="Pfad_2557" data-name="Pfad 2557" d="M102.015,150.738a6.075,6.075,0,0,1-2.514-.458,4.406,4.406,0,0,1-1.514-1.033,1.636,1.636,0,0,1-.507-.881.451.451,0,0,1,.07-.235.625.625,0,0,1,.166-.187.286.286,0,0,1,.165-.071c.109,0,.233.1.374.306a5.44,5.44,0,0,0,.611.7,3.526,3.526,0,0,0,1.115.7,4.974,4.974,0,0,0,1.915.306,4.816,4.816,0,0,0,2.163-.435,2.939,2.939,0,0,0,1.314-1.279,4.434,4.434,0,0,0,.447-2.091,4.22,4.22,0,0,0-.436-2.067,3.547,3.547,0,0,0-1.138-1.245,6.894,6.894,0,0,0-1.538-.763q-.835-.293-1.68-.577a7.018,7.018,0,0,1-1.552-.727,3.418,3.418,0,0,1-1.138-1.209,4.021,4.021,0,0,1-.434-2.009,4.215,4.215,0,0,1,.445-2.066,3.281,3.281,0,0,1,1.151-1.233,4.612,4.612,0,0,1,1.5-.6,7.626,7.626,0,0,1,1.528-.163,8.011,8.011,0,0,1,1.385.116,8.764,8.764,0,0,1,1.186.294,3.291,3.291,0,0,1,.835.389q.3.211.3.423a.494.494,0,0,1-.058.211.837.837,0,0,1-.152.211.3.3,0,0,1-.212.095,1.3,1.3,0,0,1-.541-.224,5.253,5.253,0,0,0-2.769-.668,6.089,6.089,0,0,0-1.74.257,2.713,2.713,0,0,0-2.021,2.89,3.053,3.053,0,0,0,.435,1.726,3.111,3.111,0,0,0,1.141,1.021,9.233,9.233,0,0,0,1.538.646q.833.27,1.678.6a6.469,6.469,0,0,1,1.551.858,3.84,3.84,0,0,1,1.141,1.421,5.341,5.341,0,0,1,.434,2.325,5.432,5.432,0,0,1-.6,2.713,3.618,3.618,0,0,1-1.645,1.527,5.7,5.7,0,0,1-2.406.481" transform="translate(17.987 24.621)" fill="#fff"></path><path id="Pfad_2558" data-name="Pfad 2558" d="M111.07,150.62a.487.487,0,0,1-.2-.047.4.4,0,0,1-.165-.129.336.336,0,0,1-.058-.2.318.318,0,0,1,.024-.141l5.1-16.464a.4.4,0,0,1,.165-.258.491.491,0,0,1,.259-.071.5.5,0,0,1,.269.083.42.42,0,0,1,.176.246l5.05,16.464a.271.271,0,0,1,.023.118.31.31,0,0,1-.07.187.531.531,0,0,1-.175.153.462.462,0,0,1-.224.059.388.388,0,0,1-.223-.071.4.4,0,0,1-.153-.235l-1.2-3.852h-7l-1.175,3.852a.37.37,0,0,1-.165.235.486.486,0,0,1-.257.071m1.855-5h6.483l-3.217-10.522Z" transform="translate(20.417 24.599)" fill="#fff"></path><path id="Pfad_2559" data-name="Pfad 2559" d="M134.855,150.6q-.238,0-.4-.306t-.283-.54l-3.755-7.327h-3.477v7.752a.387.387,0,0,1-.128.316.459.459,0,0,1-.294.105.446.446,0,0,1-.295-.105.388.388,0,0,1-.13-.316V133.828a.344.344,0,0,1,.118-.27.551.551,0,0,1,.307-.129h3.92a6.847,6.847,0,0,1,2.4.411,3.649,3.649,0,0,1,1.772,1.386,4.693,4.693,0,0,1,.668,2.689,4.956,4.956,0,0,1-.528,2.444,3.47,3.47,0,0,1-1.419,1.408,5.863,5.863,0,0,1-2,.611l3.875,7.538a.343.343,0,0,1,.059.141.7.7,0,0,1,.012.118.4.4,0,0,1-.058.211.471.471,0,0,1-.154.152.373.373,0,0,1-.208.059m-7.916-9.019h3.5a4.581,4.581,0,0,0,2.878-.858,4.072,4.072,0,0,0,0-5.6,4.628,4.628,0,0,0-2.878-.846h-3.5Z" transform="translate(23.267 24.621)" fill="#fff"></path><path id="Pfad_2560" data-name="Pfad 2560" d="M144.39,150.6a.442.442,0,0,1-.293-.105.384.384,0,0,1-.129-.316v-5.99a.352.352,0,0,0-.024-.141l-4.862-9.77a1.619,1.619,0,0,1-.105-.259.733.733,0,0,1-.037-.211.394.394,0,0,1,.049-.2.447.447,0,0,1,.1-.129.249.249,0,0,1,.153-.046.421.421,0,0,1,.248.094.747.747,0,0,1,.223.306l4.674,9.418,4.7-9.418a.926.926,0,0,1,.246-.306.4.4,0,0,1,.223-.094.247.247,0,0,1,.153.046.323.323,0,0,1,.094.129.487.487,0,0,1,.037.2,1.2,1.2,0,0,1-.024.211,1.074,1.074,0,0,1-.095.259l-4.885,9.77a.33.33,0,0,0-.025.141v5.99a.387.387,0,0,1-.128.316.448.448,0,0,1-.294.105" transform="translate(25.638 24.621)" fill="#fff"></path><rect id="Rechteck_1309" data-name="Rechteck 1309" width="74.056" height="1.185" transform="translate(103.685 185.62)" fill="#fff"></rect><rect id="Rechteck_1310" data-name="Rechteck 1310" width="112.756" height="1.185" transform="translate(0.335 185.62)" fill="#fff"></rect></g></svg> 